<svg xmlns="http://www.w3.org/2000/svg" width="64" height="64" viewBox="0 0 64 64">
  <circle cx="3.56" cy="3.56" r="5.33" fill="#0E0E0F" opacity="1.00"/>
  <circle cx="10.67" cy="3.56" r="4.96" fill="#0E0E0F" opacity="0.95"/>
  <circle cx="17.78" cy="3.56" r="4.58" fill="#0E0E0F" opacity="0.90"/>
  <circle cx="24.89" cy="3.56" r="4.20" fill="#0E0E0F" opacity="0.85"/>
  <circle cx="32.00" cy="3.56" r="3.82" fill="#0E0E0F" opacity="0.80"/>
  <circle cx="39.11" cy="3.56" r="3.45" fill="#0E0E0F" opacity="0.75"/>
  <circle cx="46.22" cy="3.56" r="3.07" fill="#0E0E0F" opacity="0.70"/>
  <circle cx="53.33" cy="3.56" r="2.69" fill="#0E0E0F" opacity="0.65"/>
  <circle cx="3.56" cy="10.67" r="4.96" fill="#0E0E0F" opacity="0.95"/>
  <circle cx="10.67" cy="10.67" r="4.80" fill="#0E0E0F" opacity="0.93"/>
  <circle cx="17.78" cy="10.67" r="4.49" fill="#0E0E0F" opacity="0.89"/>
  <circle cx="24.89" cy="10.67" r="4.14" fill="#0E0E0F" opacity="0.84"/>
  <circle cx="32.00" cy="10.67" r="3.78" fill="#0E0E0F" opacity="0.79"/>
  <circle cx="39.11" cy="10.67" r="3.41" fill="#0E0E0F" opacity="0.74"/>
  <circle cx="46.22" cy="10.67" r="3.04" fill="#0E0E0F" opacity="0.69"/>
  <circle cx="53.33" cy="10.67" r="2.67" fill="#0E0E0F" opacity="0.64"/>
  <circle cx="3.56" cy="17.78" r="4.58" fill="#0E0E0F" opacity="0.90"/>
  <circle cx="10.67" cy="17.78" r="4.49" fill="#0E0E0F" opacity="0.89"/>
  <circle cx="17.78" cy="17.78" r="4.27" fill="#0E0E0F" opacity="0.86"/>
  <circle cx="24.89" cy="17.78" r="3.97" fill="#0E0E0F" opacity="0.82"/>
  <circle cx="32.00" cy="17.78" r="3.65" fill="#0E0E0F" opacity="0.77"/>
  <circle cx="39.11" cy="17.78" r="3.30" fill="#0E0E0F" opacity="0.73"/>
  <circle cx="46.22" cy="17.78" r="2.95" fill="#0E0E0F" opacity="0.68"/>
  <circle cx="53.33" cy="17.78" r="2.59" fill="#0E0E0F" opacity="0.63"/>
  <circle cx="3.56" cy="24.89" r="4.20" fill="#0E0E0F" opacity="0.85"/>
  <circle cx="10.67" cy="24.89" r="4.14" fill="#0E0E0F" opacity="0.84"/>
  <circle cx="17.78" cy="24.89" r="3.97" fill="#0E0E0F" opacity="0.82"/>
  <circle cx="24.89" cy="24.89" r="3.73" fill="#0E0E0F" opacity="0.79"/>
  <circle cx="32.00" cy="24.89" r="3.45" fill="#0E0E0F" opacity="0.75"/>
  <circle cx="39.11" cy="24.89" r="3.13" fill="#0E0E0F" opacity="0.71"/>
  <circle cx="46.22" cy="24.89" r="2.80" fill="#0E0E0F" opacity="0.66"/>
  <circle cx="53.33" cy="24.89" r="2.46" fill="#0E0E0F" opacity="0.62"/>
  <circle cx="3.56" cy="32.00" r="3.82" fill="#0E0E0F" opacity="0.80"/>
  <circle cx="10.67" cy="32.00" r="3.78" fill="#0E0E0F" opacity="0.79"/>
  <circle cx="17.78" cy="32.00" r="3.65" fill="#0E0E0F" opacity="0.77"/>
  <circle cx="24.89" cy="32.00" r="3.45" fill="#0E0E0F" opacity="0.75"/>
  <circle cx="32.00" cy="32.00" r="3.20" fill="#0E0E0F" opacity="0.71"/>
  <circle cx="39.11" cy="32.00" r="2.92" fill="#0E0E0F" opacity="0.68"/>
  <circle cx="46.22" cy="32.00" r="2.61" fill="#0E0E0F" opacity="0.64"/>
  <circle cx="53.33" cy="32.00" r="2.29" fill="#0E0E0F" opacity="0.59"/>
  <circle cx="3.56" cy="39.11" r="3.45" fill="#0E0E0F" opacity="0.75"/>
  <circle cx="10.67" cy="39.11" r="3.41" fill="#0E0E0F" opacity="0.74"/>
  <circle cx="17.78" cy="39.11" r="3.30" fill="#0E0E0F" opacity="0.73"/>
  <circle cx="24.89" cy="39.11" r="3.13" fill="#0E0E0F" opacity="0.71"/>
  <circle cx="32.00" cy="39.11" r="2.92" fill="#0E0E0F" opacity="0.68"/>
  <circle cx="39.11" cy="39.11" r="2.67" fill="#0E0E0F" opacity="0.64"/>
  <circle cx="46.22" cy="39.11" r="2.39" fill="#5C1A2B" opacity="0.61"/>
  <circle cx="53.33" cy="39.11" r="2.09" fill="#5C1A2B" opacity="0.57"/>
  <circle cx="3.56" cy="46.22" r="3.07" fill="#0E0E0F" opacity="0.70"/>
  <circle cx="10.67" cy="46.22" r="3.04" fill="#0E0E0F" opacity="0.69"/>
  <circle cx="17.78" cy="46.22" r="2.95" fill="#0E0E0F" opacity="0.68"/>
  <circle cx="24.89" cy="46.22" r="2.80" fill="#0E0E0F" opacity="0.66"/>
  <circle cx="32.00" cy="46.22" r="2.61" fill="#0E0E0F" opacity="0.64"/>
  <circle cx="39.11" cy="46.22" r="2.39" fill="#5C1A2B" opacity="0.61"/>
  <circle cx="46.22" cy="46.22" r="2.13" fill="#5C1A2B" opacity="0.57"/>
  <circle cx="53.33" cy="46.22" r="1.86" fill="#5C1A2B" opacity="0.53"/>
  <circle cx="3.56" cy="53.33" r="2.69" fill="#0E0E0F" opacity="0.65"/>
  <circle cx="10.67" cy="53.33" r="2.67" fill="#0E0E0F" opacity="0.64"/>
  <circle cx="17.78" cy="53.33" r="2.59" fill="#0E0E0F" opacity="0.63"/>
  <circle cx="24.89" cy="53.33" r="2.46" fill="#0E0E0F" opacity="0.62"/>
  <circle cx="32.00" cy="53.33" r="2.29" fill="#5C1A2B" opacity="0.59"/>
  <circle cx="39.11" cy="53.33" r="2.09" fill="#5C1A2B" opacity="0.57"/>
  <circle cx="46.22" cy="53.33" r="1.86" fill="#5C1A2B" opacity="0.53"/>
  <circle cx="53.33" cy="53.33" r="1.60" fill="#5C1A2B" opacity="0.50"/>
</svg>