<svg width="118" height="40" viewBox="0 0 118 40" fill="none" xmlns="http://www.w3.org/2000/svg">
<g clipPath="url(#clip0_19_1179)">
<path d="M20.6574 5.00127C24.7131 4.94968 28.5239 6.47695 31.4058 9.31784V9.31744C34.2876 12.1591 35.875 15.953 35.875 19.9998C35.875 28.2711 29.1462 35 20.8751 35C15.7621 35 11.8453 31.9812 11.6812 31.8528L13.9607 29.3844C14.7483 29.9255 17.5379 31.6636 20.8755 31.6636C27.307 31.6636 32.539 26.431 32.539 19.9998C32.539 16.8531 31.3046 13.9033 29.0637 11.6936C26.8232 9.48479 23.8549 8.29465 20.7053 8.3373C14.494 8.42545 9.33955 13.5495 9.21486 19.759C9.18317 21.3398 9.46629 22.8891 10.0423 24.3298L14.6236 19.4198C16.5014 17.4075 19.1574 16.2531 21.9101 16.2531H27.3488V19.59H21.9101C20.079 19.59 18.3121 20.3577 17.0627 21.6965L9.40578 29.9023L8.24614 28.0968C6.63684 25.5914 5.81797 22.6851 5.87809 19.6923C5.95607 15.8067 7.53207 12.1433 10.3152 9.37674C13.0984 6.61019 16.7711 5.05651 20.6574 5.00127Z" fill="#1D2433"/>
<path d="M17.0079 26.0837L20.0888 22.7469H24.8277V26.0837H17.0079Z" fill="#1D2433"/>
<path d="M55.5329 11.68C53.3099 11.5073 52.1981 12.4253 52.1981 14.4339V14.5959H55.5329V18.6132H52.1981V30.7964H48.1397V18.6132H45.875V14.5959H48.1397V14.4339C48.1397 12.1444 48.7582 10.4059 49.996 9.21773C51.2331 8.02958 53.0789 7.51146 55.5322 7.66267V11.68H55.5329Z" fill="#1D2433"/>
<path d="M70.0667 28.7712C68.4512 30.4238 66.4801 31.25 64.1527 31.25C61.8254 31.25 59.8585 30.4238 58.2541 28.7712C56.6496 27.1187 55.8474 25.0936 55.8474 22.6965C55.8474 20.2994 56.6496 18.2736 58.2541 16.6211C59.8585 14.9685 61.8247 14.1423 64.1527 14.1423C66.4808 14.1423 68.4519 14.9685 70.0667 16.6211C71.6816 18.2736 72.4887 20.2987 72.4887 22.6965C72.4887 25.0943 71.6809 27.1195 70.0667 28.7712ZM61.1164 25.9034C61.9235 26.7461 62.9352 27.1675 64.152 27.1675C65.3689 27.1675 66.3854 26.7461 67.2037 25.9034C68.0219 25.0613 68.4303 23.9921 68.4303 22.6958C68.4303 21.3994 68.0212 20.3303 67.2037 19.4882C66.3861 18.6462 65.3682 18.2248 64.152 18.2248C62.9359 18.2248 61.9235 18.6462 61.1164 19.4882C60.3086 20.331 59.9051 21.4002 59.9051 22.6958C59.9051 23.9914 60.3086 25.0613 61.1164 25.9034Z" fill="#1D2433"/>
<path d="M88.6269 28.7712C87.0114 30.4238 85.0403 31.25 82.7129 31.25C80.3856 31.25 78.4187 30.4238 76.8143 28.7712C75.2098 27.1187 74.4076 25.0936 74.4076 22.6965C74.4076 20.2994 75.2098 18.2736 76.8143 16.6211C78.4187 14.9685 80.3849 14.1423 82.7129 14.1423C85.041 14.1423 87.0121 14.9685 88.6269 16.6211C90.2418 18.2736 91.0489 20.2987 91.0489 22.6965C91.0489 25.0943 90.2411 27.1195 88.6269 28.7712ZM79.6766 25.9034C80.4837 26.7461 81.4954 27.1675 82.7123 27.1675C83.9291 27.1675 84.9457 26.7461 85.7639 25.9034C86.5821 25.0613 86.9905 23.9921 86.9905 22.6958C86.9905 21.3994 86.5814 20.3303 85.7639 19.4882C84.9463 18.6462 83.9285 18.2248 82.7123 18.2248C81.4961 18.2248 80.4837 18.6462 79.6766 19.4882C78.8688 20.331 78.4653 21.4002 78.4653 22.6958C78.4653 23.9914 78.8688 25.0613 79.6766 25.9034Z" fill="#1D2433"/>
<path d="M97.7324 26.8758H104.716V30.7964H92.3131V28.0138L98.9451 18.5165H92.622V14.5959H104.408V17.3735L97.7324 26.8758Z" fill="#1D2433"/>
<path d="M109.609 12.6517C108.938 12.6517 108.356 12.3981 107.863 11.89C107.37 11.3826 107.125 10.7835 107.125 10.092C107.125 9.40046 107.371 8.79564 107.863 8.27753C108.356 7.75942 108.938 7.5 109.609 7.5C110.281 7.5 110.893 7.75942 111.386 8.27753C111.879 8.79636 112.125 9.40118 112.125 10.092C112.125 10.7828 111.879 11.3826 111.386 11.89C110.893 12.3981 110.301 12.6517 109.609 12.6517ZM107.596 30.7964V14.5959H111.654V30.7964H107.596Z" fill="#1D2433"/>
</g>
<defs>
<clipPath id="clip0_19_1179">
<rect width="116.25" height="40" fill="white" transform="translate(0.875)"/>
</clipPath>
</defs>
</svg>
