<svg width="188" height="63" viewBox="0 0 188 63" fill="#286EFF" xmlns="http://www.w3.org/2000/svg">
<path d="M8.7112 23.0715C8.7112 23.8885 9.22107 24.5345 10.2423 25.0111C11.2634 25.4862 12.5338 25.9193 14.0547 26.3046C15.5741 26.6899 17.2196 27.0983 18.9897 27.5285C20.7597 27.9602 22.4037 28.5961 23.9247 29.4333C25.4441 30.2734 26.7144 31.3511 27.7371 32.6663C28.7583 33.9815 29.2681 35.7284 29.2681 37.9069C29.2681 39.5857 28.9379 41.0835 28.2817 42.4001C27.6241 43.7168 26.6927 44.8162 25.4905 45.7012C24.2882 46.5863 22.86 47.2555 21.2029 47.7088C19.5459 48.1622 17.6976 48.3896 15.6552 48.3896C13.7505 48.3896 11.9674 48.2071 10.3118 47.845C8.65471 47.4829 7.14683 47.0396 5.78526 46.5167C4.42368 45.9953 3.2562 45.4275 2.27992 44.8148C1.30219 44.2021 0.543183 43.669 0 43.2156L4.3556 36.8177C5.80554 38.1793 7.62193 39.2004 9.80046 39.8798C11.979 40.5606 13.9967 40.901 15.858 40.901C17.447 40.901 18.7173 40.6634 19.6704 40.1869C20.6221 39.7118 21.0987 38.9962 21.0987 38.0431C21.0987 37.09 20.5888 36.2861 19.5676 35.7632C18.5464 35.2432 17.2761 34.7768 15.7552 34.3683C14.2343 33.9598 12.5902 33.5412 10.8202 33.1095C9.05015 32.6793 7.40611 32.0666 5.8852 31.2729C4.36429 30.4791 3.09542 29.4347 2.07278 28.1412C1.0516 26.8477 0.541733 25.1574 0.541733 23.0715C0.541733 20.0312 1.65417 17.66 3.8776 15.958C6.09958 14.256 9.25438 13.4072 13.3391 13.4072C15.1092 13.4072 16.7749 13.5666 18.3422 13.8823C19.9066 14.201 21.371 14.5979 22.7311 15.0744C24.0912 15.551 25.3167 16.0956 26.4059 16.7069C27.4952 17.321 28.4019 17.9439 29.1291 18.5783L24.772 24.9082C23.8638 24.1376 22.902 23.5017 21.8794 23.0035C20.8582 22.5052 19.8254 22.0953 18.7825 21.7795C17.7382 21.4623 16.7286 21.2349 15.7537 21.0987C14.7775 20.9625 13.8823 20.893 13.0654 20.893C11.6125 20.893 10.5233 21.0987 9.79902 21.5072C9.07332 21.9156 8.70975 22.4371 8.70975 23.073" fill="#286EFF"/>
<path d="M58.8608 45.3956C57.6788 46.3951 56.2622 47.1772 54.6065 47.7436C52.9495 48.3114 51.0766 48.5953 48.9908 48.5953C46.495 48.5953 44.1919 48.1752 42.0815 47.3366C39.9725 46.4979 38.1561 45.3058 36.6381 43.7632C35.1172 42.222 33.9366 40.3592 33.098 38.1821C32.2578 36.0036 31.8392 33.5991 31.8392 30.9658C31.8392 28.3324 32.2578 25.941 33.098 23.7856C33.9366 21.6303 35.1157 19.7922 36.6381 18.2712C38.1575 16.7518 39.9725 15.5727 42.0815 14.7326C44.1919 13.8939 46.495 13.4739 48.9908 13.4739C51.1678 13.4739 53.0639 13.7708 54.6732 14.3589C56.2839 14.9499 57.6788 15.7654 58.8593 16.8097V13.9504H67.0259V47.9826H58.8593V45.3956H58.8608ZM40.4534 31.0339C40.4534 34.0597 41.2645 36.415 42.8854 38.101C44.5063 39.7871 46.679 40.6301 49.4021 40.6301C52.1253 40.6301 54.3067 39.7871 55.9522 38.101C57.5948 36.415 58.4161 34.0597 58.4161 31.0339C58.4161 28.008 57.5948 25.6527 55.9522 23.9667C54.3082 22.2807 52.1267 21.4376 49.4021 21.4376C46.6775 21.4376 44.5063 22.2807 42.8854 23.9667C41.2645 25.6527 40.4534 28.0094 40.4534 31.0339Z" fill="#286EFF"/>
<path d="M71.6073 4.08328C71.6073 2.9694 71.9984 2.0105 72.7835 1.20659C73.5657 0.402679 74.5361 0 75.6906 0C76.845 0 77.8155 0.401231 78.5991 1.20659C79.3828 2.0105 79.7753 2.9694 79.7753 4.08328C79.7753 5.28118 79.3828 6.2705 78.5991 7.05413C77.8155 7.83776 76.845 8.2303 75.6906 8.2303C74.5361 8.2303 73.5657 7.83776 72.7835 7.05413C71.9984 6.27195 71.6073 5.28118 71.6073 4.08328ZM71.6073 13.9489H79.7753V47.9811H71.6073V13.9489Z" fill="#286EFF"/>
<path d="M119.543 30.9658C119.543 33.5991 119.123 36.0022 118.285 38.1821C117.445 40.3592 116.265 42.2205 114.745 43.7632C113.224 45.3058 111.42 46.4965 109.333 47.3366C107.246 48.1753 104.931 48.5953 102.39 48.5953C100.212 48.5953 98.3173 48.2897 96.7066 47.677C95.0958 47.0628 93.6995 46.2357 92.5204 45.1928V62.0691H84.3524V13.9504H92.5204V16.8097C93.6995 15.7668 95.0944 14.9499 96.7066 14.3589C98.3173 13.7708 100.212 13.4739 102.39 13.4739C104.931 13.4739 107.246 13.8939 109.333 14.7326C111.42 15.5713 113.224 16.7518 114.745 18.2712C116.264 19.7922 117.443 21.6303 118.285 23.7856C119.123 25.941 119.543 28.3353 119.543 30.9658ZM110.929 31.0339C110.929 28.008 110.118 25.6527 108.497 23.9667C106.876 22.2807 104.704 21.4376 101.981 21.4376C99.2574 21.4376 97.073 22.2807 95.4304 23.9667C93.7864 25.6527 92.9666 28.0094 92.9666 31.0339C92.9666 34.0583 93.7864 36.415 95.4304 38.101C97.073 39.7871 99.2559 40.6301 101.981 40.6301C104.705 40.6301 106.876 39.7871 108.497 38.101C110.118 36.415 110.929 34.0597 110.929 31.0339Z" fill="#286EFF"/>
<path d="M122.184 30.9658C122.184 28.3353 122.604 25.941 123.443 23.7856C124.281 21.6303 125.473 19.7922 127.016 18.2712C128.559 16.7518 130.42 15.5727 132.597 14.7326C134.776 13.8939 137.18 13.4739 139.812 13.4739C142.444 13.4739 144.837 13.8939 146.994 14.7326C149.149 15.5713 150.997 16.7518 152.541 18.2712C154.084 19.7922 155.275 21.6303 156.115 23.7856C156.953 25.941 157.375 28.3353 157.375 30.9658C157.375 33.5962 156.955 36.0022 156.115 38.1821C155.275 40.3592 154.084 42.2205 152.541 43.7632C150.999 45.3058 149.149 46.4965 146.994 47.3366C144.837 48.1752 142.444 48.5953 139.812 48.5953C137.18 48.5953 134.776 48.1752 132.597 47.3366C130.419 46.4979 128.559 45.3058 127.016 43.7632C125.473 42.222 124.283 40.3592 123.443 38.1821C122.604 36.0036 122.184 33.5991 122.184 30.9658ZM130.798 31.0339C130.798 34.0597 131.609 36.415 133.23 38.101C134.852 39.7871 137.024 40.6301 139.747 40.6301C142.47 40.6301 144.653 39.7871 146.297 38.101C147.939 36.415 148.761 34.0597 148.761 31.0339C148.761 28.008 147.939 25.6527 146.297 23.9667C144.653 22.2807 142.471 21.4376 139.747 21.4376C137.022 21.4376 134.852 22.2807 133.23 23.9667C131.609 25.6527 130.798 28.0094 130.798 31.0339Z" fill="#286EFF"/>
<path d="M166.99 23.0715C166.99 23.8885 167.5 24.5345 168.521 25.0111C169.542 25.4862 170.813 25.9193 172.334 26.3046C173.853 26.6899 175.499 27.0983 177.269 27.5285C179.039 27.9602 180.683 28.5961 182.204 29.4333C183.723 30.2734 184.993 31.3511 186.016 32.6663C187.037 33.9815 187.547 35.7284 187.547 37.9069C187.547 39.5857 187.217 41.0835 186.561 42.4001C185.903 43.7168 184.972 44.8162 183.769 45.7012C182.567 46.5863 181.139 47.2555 179.482 47.7088C177.825 48.1622 175.977 48.3896 173.934 48.3896C172.029 48.3896 170.246 48.2071 168.591 47.845C166.934 47.4829 165.426 47.0396 164.064 46.5167C162.703 45.9953 161.535 45.4275 160.559 44.8148C159.581 44.2021 158.822 43.669 158.279 43.2156L162.635 36.8177C164.084 38.1793 165.901 39.2004 168.079 39.8798C170.258 40.5606 172.276 40.901 174.137 40.901C175.726 40.901 176.996 40.6634 177.949 40.1869C178.901 39.7118 179.378 38.9962 179.378 38.0431C179.378 37.09 178.868 36.2861 177.847 35.7632C176.825 35.2432 175.555 34.7768 174.034 34.3683C172.513 33.9598 170.869 33.5412 169.099 33.1095C167.329 32.6793 165.685 32.0666 164.164 31.2729C162.643 30.4791 161.374 29.4347 160.352 28.1412C159.331 26.8477 158.821 25.1574 158.821 23.0715C158.821 20.0312 159.933 17.66 162.157 15.958C164.379 14.256 167.533 13.4072 171.618 13.4072C173.388 13.4072 175.054 13.5666 176.621 13.8823C178.185 14.201 179.65 14.5979 181.01 15.0744C182.37 15.551 183.596 16.0956 184.685 16.7069C185.774 17.321 186.681 17.9439 187.408 18.5783L183.051 24.9082C182.143 24.1376 181.181 23.5017 180.158 23.0035C179.137 22.5052 178.104 22.0953 177.061 21.7795C176.017 21.4623 175.008 21.2349 174.033 21.0987C173.056 20.9625 172.161 20.893 171.344 20.893C169.891 20.893 168.802 21.0987 168.078 21.5072C167.352 21.9156 166.989 22.4371 166.989 23.073" fill="#286EFF"/>
</svg>
